<svg width="164" height="48" viewBox="0 0 164 48" fill="none" xmlns="http://www.w3.org/2000/svg">
<g clip-path="url(#clip0_43_65)">
<path d="M56.001 34.9819C56.001 32.0236 58.1877 30.0497 60.9037 30.0497C62.5905 30.0497 63.7634 30.7936 64.6059 31.8368L63.6631 32.4232C63.0628 31.6516 62.0473 31.1084 60.9037 31.1084C58.8174 31.1084 57.231 32.7087 57.231 34.9819C57.231 37.255 58.8174 38.8691 60.9037 38.8691C62.0473 38.8691 62.9901 38.3121 63.4624 37.8398V35.8953H60.1893V34.8383H64.6491V38.2827C63.7634 39.2687 62.4624 39.9261 60.9037 39.9261C58.1877 39.9261 56.001 37.9384 56.001 34.9801V34.9819Z" fill="white"/>
<path d="M72.439 39.7411L70.0084 35.9524H68.1072V39.7411H66.9204V30.2072H70.7506C72.4944 30.2072 73.7383 31.3213 73.7383 33.0806C73.7383 34.84 72.5653 35.7396 71.2661 35.8538L73.8386 39.7411H72.4373H72.439ZM72.51 33.0806C72.51 32.0081 71.7384 31.2659 70.6087 31.2659H68.1072V34.911H70.6087C71.7384 34.911 72.51 34.1532 72.51 33.0806Z" fill="white"/>
<path d="M75.5688 34.9819C75.5688 32.1654 77.4701 30.0497 80.3003 30.0497C83.1306 30.0497 85.0318 32.1654 85.0318 34.9819C85.0318 37.7983 83.1167 39.914 80.3003 39.914C77.4839 39.914 75.5688 37.7983 75.5688 34.9819ZM83.8018 34.9819C83.8018 32.7519 82.4299 31.1084 80.3003 31.1084C78.1707 31.1084 76.7989 32.7519 76.7989 34.9819C76.7989 37.2118 78.1569 38.8553 80.3003 38.8553C82.4438 38.8553 83.8018 37.198 83.8018 34.9819Z" fill="white"/>
<path d="M87.2324 36.0389V30.2072H88.4192V36.0112C88.4192 37.7551 89.362 38.8553 91.1214 38.8553C92.8808 38.8553 93.8236 37.7551 93.8236 36.0112V30.2072H95.0104V36.0251C95.0104 38.3969 93.7095 39.9123 91.1231 39.9123C88.5368 39.9123 87.2359 38.383 87.2359 36.0389H87.2324Z" fill="white"/>
<path d="M97.5808 39.7411V30.2072H101.411C103.326 30.2072 104.399 31.5219 104.399 33.0806C104.399 34.6394 103.298 35.9541 101.411 35.9541H98.7659V39.7428H97.5791L97.5808 39.7411ZM103.17 33.0806C103.17 32.0081 102.399 31.2659 101.269 31.2659H98.7676V34.8971H101.269C102.399 34.8971 103.17 34.1532 103.17 33.0824V33.0806Z" fill="white"/>
<path d="M69.3269 26.422V18.1354H58.7412V26.422H56.4888V8.35925H58.7412V16.132H69.3269V8.35925H71.5794V26.422H69.3269Z" fill="white"/>
<path d="M76.1948 26.422V8.35925H78.4473V26.422H76.1948Z" fill="white"/>
<path d="M83.061 26.422V8.35925H85.3135V24.4186H93.7281V26.422H83.061Z" fill="white"/>
<path d="M97.2852 26.422V8.35925H99.5376V24.4186H107.952V26.422H97.2852Z" fill="white"/>
<path d="M121.984 26.422L117.37 19.246H113.76V26.422H111.507V8.35925H118.782C122.093 8.35925 124.454 10.4716 124.454 13.8018C124.454 17.132 122.228 18.8395 119.759 19.0557L124.645 26.422H121.984ZM122.121 13.8018C122.121 11.7708 120.655 10.3626 118.51 10.3626H113.76V17.2686H118.51C120.654 17.2686 122.121 15.8328 122.121 13.8018Z" fill="white"/>
<path d="M128.39 26.422V8.35925H130.643V26.422H128.39Z" fill="white"/>
<path d="M134.172 23.8754L135.502 22.1697C136.696 23.4966 138.651 24.7422 141.203 24.7422C144.432 24.7422 145.463 23.0087 145.463 21.6282C145.463 16.9711 134.743 19.5436 134.743 13.0977C134.743 10.1186 137.403 8.08765 140.959 8.08765C143.727 8.08765 145.872 9.008 147.391 10.6065L146.034 12.2586C144.678 10.7691 142.777 10.0927 140.796 10.0927C138.625 10.0927 137.078 11.257 137.078 12.9627C137.078 17.0247 147.799 14.6962 147.799 21.4396C147.799 24.0657 146.008 26.7472 141.123 26.7472C137.974 26.7472 135.667 25.5552 134.175 23.8772L134.172 23.8754Z" fill="white"/>
<path d="M151.542 26.422V8.35925H163.403V10.3626H153.795V16.1857H163.213V18.189H153.795V24.4169H163.403V26.4202H151.542V26.422Z" fill="white"/>
<path d="M28.8439 25.6712H47.9412C47.9792 25.1193 48 24.5622 48 24.0017C48 10.7449 37.2551 0 24 0C10.7449 0 0 10.7449 0 24C0 37.2551 10.7449 48 24 48V44.8463H35.9005C38.153 43.5574 40.1753 41.9139 41.8949 39.9937H24.0017V35.0598H45.3047C46.0382 33.6498 46.6351 32.1586 47.0797 30.6033H24.0035L28.8474 25.6694L28.8439 25.6712Z" fill="white"/>
<path d="M28.8439 25.6712H47.9412C47.9792 25.1193 48 24.5622 48 24.0017C48 10.7449 37.2551 0 24 0C10.7449 0 0 10.7449 0 24C0 37.2551 10.7449 48 24 48V44.8463H35.9005C38.153 43.5574 40.1753 41.9139 41.8949 39.9937H24.0017V35.0598H45.3047C46.0382 33.6498 46.6351 32.1586 47.0797 30.6033H24.0035L28.8474 25.6694L28.8439 25.6712Z" fill="white"/>
</g>
<defs>
<clipPath id="clip0_43_65">
<rect width="163.403" height="48" fill="white"/>
</clipPath>
</defs>
</svg>
