<?xml version="1.0" encoding="utf-8"?>
<!-- Generator: Adobe Illustrator 27.1.1, SVG Export Plug-In . SVG Version: 6.00 Build 0)  -->
<svg version="1.1" id="Layer_1" xmlns="http://www.w3.org/2000/svg" xmlns:xlink="http://www.w3.org/1999/xlink" x="0px" y="0px"
	 viewBox="0 0 68.4 68.4" style="enable-background:new 0 0 68.4 68.4;" xml:space="preserve">
<style type="text/css">
	.st0{fill:url(#SVGID_1_);}
</style>
<rect width="68.4" height="68.4"/>
<radialGradient id="SVGID_1_" cx="-920.5087" cy="577.4635" r="1" gradientTransform="matrix(28.9999 156.4998 358.7969 -66.4861 -180529.8125 182406.4375)" gradientUnits="userSpaceOnUse">
	<stop  offset="0" style="stop-color:#A8C0DC"/>
	<stop  offset="4.000000e-02" style="stop-color:#C7D5F8"/>
	<stop  offset="0.116" style="stop-color:#64F3F7"/>
	<stop  offset="0.147" style="stop-color:#DFE3F9"/>
	<stop  offset="0.182" style="stop-color:#AFB7E7"/>
	<stop  offset="0.273" style="stop-color:#C6B1C0"/>
	<stop  offset="0.342" style="stop-color:#9585BC"/>
	<stop  offset="0.385" style="stop-color:#028EDA"/>
	<stop  offset="0.415" style="stop-color:#88619A"/>
	<stop  offset="0.441" style="stop-color:#F8F085"/>
	<stop  offset="0.47" style="stop-color:#3F739D"/>
	<stop  offset="0.505" style="stop-color:#35436C"/>
	<stop  offset="0.541" style="stop-color:#795FA7"/>
	<stop  offset="0.568" style="stop-color:#C377BC"/>
	<stop  offset="0.586" style="stop-color:#F096C3"/>
	<stop  offset="0.605" style="stop-color:#F0DDB2"/>
	<stop  offset="0.621" style="stop-color:#FFFFFF"/>
	<stop  offset="0.639" style="stop-color:#B3A7D1"/>
	<stop  offset="0.711" style="stop-color:#B0B8E7"/>
	<stop  offset="0.763" style="stop-color:#B5A7D7"/>
	<stop  offset="0.823" style="stop-color:#BB93C4"/>
	<stop  offset="0.878" style="stop-color:#AABFDF"/>
	<stop  offset="0.922" style="stop-color:#FFFFFA"/>
	<stop  offset="0.957" style="stop-color:#AABFDF"/>
</radialGradient>
<path class="st0" d="M9.2,42.3c1.1-1,2.2-1.8,3.5-2.4C17,38.1,22,39,25.2,42.3c1.5,1.5,3,3.1,4.5,4.6c0.1,0.1,0.2,0.2,0.3,0.3
	c4.3-4.4,8.6-8.7,12.9-13.1l-12.8-13c1.6-1.6,3.6-2.7,5.8-3.1c0.5-0.1,1.1-0.2,1.6-0.3h1.2c0.5,0.1,1,0.1,1.5,0.2
	c2.3,0.4,4.2,1.5,5.9,3.1c4.2,4.2,8.4,8.5,12.6,12.7c0.1,0.1,0.3,0.2,0.4,0.4c-0.2,0.2-0.3,0.3-0.4,0.4c-4.2,4.3-8.4,8.5-12.6,12.8
	c-4.2,4.3-11.3,4.4-15.7,0.3c-0.1-0.1-0.2-0.2-0.3-0.2c-0.9,0.7-1.8,1.4-2.8,1.9c-4.3,2.4-9.8,1.6-13.3-1.9
	C12.5,45.7,10.9,44.1,9.2,42.3C9.2,42.4,9.2,42.3,9.2,42.3z"/>
</svg>
