<?xml version="1.0" encoding="utf-8"?>
<!-- Generator: Adobe Illustrator 27.4.0, SVG Export Plug-In . SVG Version: 6.00 Build 0)  -->
<svg version="1.1" id="Layer_1" xmlns="http://www.w3.org/2000/svg" xmlns:xlink="http://www.w3.org/1999/xlink" x="0px" y="0px"
	 viewBox="0 0 209 48" style="enable-background:new 0 0 209 48;" xml:space="preserve">
<style type="text/css">
	.st0{clip-path:url(#SVGID_00000137828039989959639100000013955945521183990183_);}
	.st1{fill:#FFFFFF;}
	.st2{fill-rule:evenodd;clip-rule:evenodd;fill:#FFFFFF;}
</style>
<g>
	<defs>
		<rect id="SVGID_1_" y="3" width="178" height="42"/>
	</defs>
	<clipPath id="SVGID_00000136396447892649346020000008889396013245886892_">
		<use xlink:href="#SVGID_1_"  style="overflow:visible;"/>
	</clipPath>
	<g style="clip-path:url(#SVGID_00000136396447892649346020000008889396013245886892_);">
		<path class="st1" d="M140,24v-3c0-0.9-0.1-1.8-0.3-2.6c-0.1-0.8-0.4-1.5-0.7-2.3c-0.3-0.8-0.9-1.4-1.5-2c-0.9-0.9-1.8-1.5-2.9-2.1
			c-1.2-0.5-2.3-0.8-3.7-0.8c-1.3,0-2.5,0.2-3.7,0.8c-1,0.5-2.1,1.2-2.9,2c-0.6,0.6-1,1.2-1.5,2c-0.3,0.8-0.6,1.5-0.7,2.3
			c-0.1,0.9-0.3,1.8-0.3,2.6v6c0,0.9,0.1,1.8,0.3,2.6c0.1,0.8,0.4,1.5,0.7,2.3c0.3,0.8,0.9,1.4,1.5,2c0.9,0.9,1.8,1.5,2.9,2
			c1.2,0.5,2.5,0.8,3.7,0.8c1.3,0,2.5-0.2,3.7-0.8c1-0.5,2.1-1.2,2.9-2c0.6-0.6,1-1.2,1.5-2c0.3-0.8,0.6-1.5,0.7-2.3
			c0.1-0.9,0.3-1.8,0.3-2.6C140,26.1,140.1,25.1,140,24z M135.3,24v3c0,0.6-0.1,1.4-0.1,2c0,0.5-0.1,0.9-0.4,1.2
			c-0.1,0.3-0.3,0.6-0.6,0.9c-0.3,0.5-0.7,0.8-1.3,0.9c-0.6,0.3-1.2,0.3-1.8,0.3c-0.6,0-1.2-0.2-1.8-0.3c-0.4-0.2-1-0.6-1.3-0.9
			c-0.3-0.3-0.4-0.6-0.6-0.9c-0.1-0.5-0.3-0.8-0.3-1.2c-0.1-0.6-0.1-1.4-0.1-2v-6c0-0.6,0.1-1.4,0.1-2c0-0.5,0.1-0.9,0.3-1.2
			c0.1-0.3,0.3-0.6,0.6-0.9c0.3-0.5,0.9-0.8,1.3-0.9c0.6-0.3,1.2-0.3,1.8-0.3c0.6,0,1.2,0.2,1.8,0.3c0.4,0.2,0.9,0.6,1.3,0.9
			c0.3,0.3,0.4,0.6,0.6,0.9c0.1,0.5,0.3,0.8,0.4,1.2c0.1,0.6,0.1,1.4,0.1,2V24z"/>
		<path class="st1" d="M177.9,12c0-0.3-0.1-0.5-0.4-0.5h-3.8c-0.3,0-0.4,0.2-0.4,0.5v14.9l-9.5-15.2c0-0.2-0.1-0.2-0.3-0.2h-3.7
			c-0.3,0-0.4,0.2-0.4,0.5v24c0,0.3,0.1,0.5,0.4,0.5h4c0.3,0,0.4-0.2,0.4-0.5V21.2l9.5,15.2c0,0.2,0.1,0.2,0.3,0.2h3.7
			c0.3,0,0.4-0.2,0.4-0.5L177.9,12z"/>
		<path class="st1" d="M151.6,12c0-0.3-0.1-0.5-0.4-0.5h-4c-0.3,0-0.4,0.2-0.4,0.5v24c0,0.3,0.1,0.5,0.4,0.5h4
			c0.3,0,0.4-0.2,0.4-0.5V12z"/>
		<path class="st1" d="M104.8,24v-3c0-0.6,0.1-1.4,0.1-2c0.3-2.1,1.9-3.5,4-3.5c1.3,0,2.5,0.5,3.4,1.7c0.3,0.6,0.6,1.2,0.7,1.8
			c0,0,0,0.2,0.1,0.2h4.7c0,0,0.1,0,0.1-0.2c-0.4-2.9-2.1-5.6-4.7-6.9c-1.3-0.6-2.8-0.9-4.3-0.9c-2.6,0-4.8,0.9-6.6,2.7
			c-1,1.1-1.8,2.3-2.1,3.8c-0.3,1.4-0.4,3.5-0.4,6.2c0,2.7,0.1,4.8,0.4,6.2c0.3,1.4,1,2.7,1.9,3.8c1.8,1.8,4,2.7,6.6,2.7
			c1.5,0,2.9-0.3,4.3-0.9c2.6-1.4,4.3-3.9,4.7-6.9c0,0,0-0.2-0.1-0.2h-4.5c0,0-0.1,0-0.1,0.2c-0.1,0.6-0.4,1.2-0.7,1.8
			c-0.7,1.2-2.1,1.7-3.4,1.7c-2.1,0-3.7-1.2-4-3.5c-0.1-0.6-0.1-1.4-0.1-2C104.8,26.3,104.8,25.2,104.8,24z"/>
		<path class="st1" d="M56.1,12c0-0.3-0.1-0.5-0.4-0.5h-3.8c-0.3,0-0.4,0.2-0.4,0.5v24c0,0.3,0.1,0.5,0.4,0.5h4
			c0.3,0,0.4-0.2,0.4-0.5V29l3.1-3.9l6.5,11.3c0,0.2,0.1,0.2,0.3,0.2h4.7c0.1,0,0.3-0.2,0.1-0.3l-8.5-14.7l7.8-9.5
			c0.1-0.2,0.1-0.5-0.1-0.5h-5.1c0,0-0.1,0-0.1,0.2l-8.5,10.5V12H56.1z"/>
		<path class="st1" d="M84.7,32.4c-2.2,0-4.3-2.1-4.3-4.5V12c0-0.3-0.1-0.5-0.4-0.5h-4c-0.3,0-0.4,0.2-0.4,0.5v15.8c0,5.6,4,9,9,9
			c5,0,9-3.5,9-9V12c0-0.3-0.1-0.5-0.4-0.5h-4c-0.3,0-0.4,0.2-0.4,0.5v15.8C88.8,30.3,86.9,32.4,84.7,32.4L84.7,32.4z"/>
		<path class="st2" d="M12,24l12.2,12.5l7.6-7.8c1.3-1.2,3.5-1.2,4.8,0.2c1.3,1.4,1.3,3.5,0.1,5L26.6,44c-1.3,1.4-3.5,1.4-4.8,0
			L7,29v9c0,2-1.6,3.6-3.5,3.6C1.6,41.6,0,39.9,0,38V10.2c0-2,1.6-3.6,3.5-3.6C5.4,6.6,7,8.2,7,10.2V19L21.7,4
			c1.3-1.4,3.5-1.4,4.8,0l10.1,10.4c1.2,1.4,1.2,3.6-0.1,5s-3.4,1.4-4.8,0.2l-7.6-7.8L12,24z M24.2,20.6c-1.5,0-2.6,0.9-3.2,2.3
			c-0.6,1.4-0.3,2.9,0.7,3.9c1,1.1,2.5,1.4,3.8,0.8c1.3-0.6,2.2-1.8,2.2-3.3c0-0.9-0.3-1.8-1-2.6C26,20.9,25.1,20.6,24.2,20.6z"/>
	</g>
</g>
</svg>
